<mxfile host="app.diagrams.net" modified="2023-11-25T20:47:27.055Z" agent="Mozilla/5.0 (Windows NT 10.0; Win64; x64) AppleWebKit/537.36 (KHTML, like Gecko) Chrome/119.0.0.0 Safari/537.36" etag="W9PnXEFEbd68-ujhPkkA" version="22.1.4" type="device">
  <diagram name="Page-1" id="yNziDJdRuR4jBwRZNhir">
    <mxGraphModel dx="880" dy="446" grid="1" gridSize="10" guides="1" tooltips="1" connect="1" arrows="1" fold="1" page="1" pageScale="1" pageWidth="850" pageHeight="1100" math="0" shadow="0">
      <root>
        <mxCell id="0" />
        <mxCell id="1" parent="0" />
        <mxCell id="3nVCWedfx9IJaaSxqp9G-1" value="" style="rounded=1;whiteSpace=wrap;html=1;fillColor=#d5e8d4;gradientColor=#97d077;strokeColor=#82b366;" parent="1" vertex="1">
          <mxGeometry x="160" y="80" width="500" height="90" as="geometry" />
        </mxCell>
        <mxCell id="3nVCWedfx9IJaaSxqp9G-4" value="&lt;h1&gt;&lt;span style=&quot;background-color: initial;&quot;&gt;Presentation Layer / User Interface&lt;/span&gt;&lt;br&gt;&lt;/h1&gt;" style="text;html=1;strokeColor=none;fillColor=none;spacing=5;spacingTop=-20;whiteSpace=wrap;overflow=hidden;rounded=0;align=center;verticalAlign=middle;" parent="1" vertex="1">
          <mxGeometry x="240" y="95" width="410" height="45" as="geometry" />
        </mxCell>
        <mxCell id="3nVCWedfx9IJaaSxqp9G-5" value="C-Sharp WinForms" style="text;html=1;strokeColor=none;fillColor=none;align=center;verticalAlign=middle;whiteSpace=wrap;rounded=0;fontStyle=1;fontSize=14;" parent="1" vertex="1">
          <mxGeometry x="375" y="128.2" width="140" height="30" as="geometry" />
        </mxCell>
        <mxCell id="3nVCWedfx9IJaaSxqp9G-6" value="" style="rounded=1;whiteSpace=wrap;html=1;fillColor=#dae8fc;gradientColor=#7ea6e0;strokeColor=#6c8ebf;" parent="1" vertex="1">
          <mxGeometry x="160" y="240" width="500" height="90" as="geometry" />
        </mxCell>
        <mxCell id="3nVCWedfx9IJaaSxqp9G-7" value="&lt;h1&gt;&lt;span style=&quot;background-color: initial;&quot;&gt;Business Logic Layer&lt;/span&gt;&lt;br&gt;&lt;/h1&gt;" style="text;html=1;strokeColor=none;fillColor=none;spacing=5;spacingTop=-20;whiteSpace=wrap;overflow=hidden;rounded=0;align=center;" parent="1" vertex="1">
          <mxGeometry x="215" y="246" width="420" height="45" as="geometry" />
        </mxCell>
        <mxCell id="3nVCWedfx9IJaaSxqp9G-8" value="Dot Net C-Sharp Classes" style="text;html=1;strokeColor=none;fillColor=none;align=center;verticalAlign=middle;whiteSpace=wrap;rounded=0;fontStyle=1;fontSize=14;" parent="1" vertex="1">
          <mxGeometry x="340" y="291" width="170" height="30" as="geometry" />
        </mxCell>
        <mxCell id="3nVCWedfx9IJaaSxqp9G-9" value="" style="rounded=1;whiteSpace=wrap;html=1;fillColor=#fff2cc;strokeColor=#d6b656;gradientColor=#ffd966;" parent="1" vertex="1">
          <mxGeometry x="160" y="400" width="500" height="90" as="geometry" />
        </mxCell>
        <mxCell id="3nVCWedfx9IJaaSxqp9G-10" value="&lt;h1&gt;&lt;span style=&quot;background-color: initial;&quot;&gt;Database Layer&lt;/span&gt;&lt;br&gt;&lt;/h1&gt;" style="text;html=1;strokeColor=none;fillColor=none;spacing=5;spacingTop=-20;whiteSpace=wrap;overflow=hidden;rounded=0;align=center;" parent="1" vertex="1">
          <mxGeometry x="195" y="405" width="430" height="45" as="geometry" />
        </mxCell>
        <mxCell id="3nVCWedfx9IJaaSxqp9G-11" value="MSSQL Server" style="text;html=1;strokeColor=none;fillColor=none;align=center;verticalAlign=middle;whiteSpace=wrap;rounded=0;fontStyle=1;fontSize=14;" parent="1" vertex="1">
          <mxGeometry x="332.5" y="450" width="155" height="30" as="geometry" />
        </mxCell>
        <mxCell id="3nVCWedfx9IJaaSxqp9G-15" value="" style="shape=flexArrow;endArrow=classic;html=1;rounded=0;fillColor=#f5f5f5;gradientColor=#b3b3b3;strokeColor=#666666;" parent="1" edge="1">
          <mxGeometry width="50" height="50" relative="1" as="geometry">
            <mxPoint x="380" y="240" as="sourcePoint" />
            <mxPoint x="380" y="170" as="targetPoint" />
          </mxGeometry>
        </mxCell>
        <mxCell id="3nVCWedfx9IJaaSxqp9G-16" value="" style="shape=flexArrow;endArrow=classic;html=1;rounded=0;fillColor=#f5f5f5;gradientColor=#b3b3b3;strokeColor=#666666;" parent="1" edge="1">
          <mxGeometry width="50" height="50" relative="1" as="geometry">
            <mxPoint x="375" y="400" as="sourcePoint" />
            <mxPoint x="375" y="330" as="targetPoint" />
          </mxGeometry>
        </mxCell>
        <mxCell id="3nVCWedfx9IJaaSxqp9G-17" value="" style="shape=flexArrow;endArrow=classic;html=1;rounded=0;fillColor=#f5f5f5;gradientColor=#b3b3b3;strokeColor=#666666;" parent="1" edge="1">
          <mxGeometry width="50" height="50" relative="1" as="geometry">
            <mxPoint x="460" y="170" as="sourcePoint" />
            <mxPoint x="460" y="240" as="targetPoint" />
          </mxGeometry>
        </mxCell>
        <mxCell id="3nVCWedfx9IJaaSxqp9G-18" value="" style="shape=flexArrow;endArrow=classic;html=1;rounded=0;fillColor=#f5f5f5;gradientColor=#b3b3b3;strokeColor=#666666;" parent="1" edge="1">
          <mxGeometry width="50" height="50" relative="1" as="geometry">
            <mxPoint x="460" y="330" as="sourcePoint" />
            <mxPoint x="460" y="400" as="targetPoint" />
          </mxGeometry>
        </mxCell>
        <mxCell id="3nVCWedfx9IJaaSxqp9G-19" value="" style="image;aspect=fixed;perimeter=ellipsePerimeter;html=1;align=center;shadow=0;dashed=0;spacingTop=3;image=img/lib/active_directory/database_server.svg;" parent="1" vertex="1">
          <mxGeometry x="165" y="400" width="73.8" height="90" as="geometry" />
        </mxCell>
        <mxCell id="ANmZTpQAAF9jZqedavLC-1" value="" style="sketch=0;outlineConnect=0;fontColor=#232F3E;gradientColor=none;fillColor=#7AA116;strokeColor=none;dashed=0;verticalLabelPosition=bottom;verticalAlign=top;align=center;html=1;fontSize=12;fontStyle=0;aspect=fixed;pointerEvents=1;shape=mxgraph.aws4.iot_thing_plc;" vertex="1" parent="1">
          <mxGeometry x="170" y="246" width="78" height="78" as="geometry" />
        </mxCell>
        <mxCell id="ANmZTpQAAF9jZqedavLC-3" value="" style="image;aspect=fixed;html=1;points=[];align=center;fontSize=12;image=img/lib/azure2/management_governance/Managed_Desktop.svg;" vertex="1" parent="1">
          <mxGeometry x="167.9" y="95" width="68" height="63.2" as="geometry" />
        </mxCell>
      </root>
    </mxGraphModel>
  </diagram>
</mxfile>
